<svg id="Layer_1" data-name="Layer 1" xmlns="http://www.w3.org/2000/svg" viewBox="0 0 478.82 211.4"><title>bkash</title><g id="Layer_1-2" data-name="Layer 1-2"><path d="M4,91.14A30.63,30.63,0,0,0,3.23,84,8.89,8.89,0,0,0,0,78.83l13-2v38.4a.55.55,0,0,0,.47.62.38.38,0,0,0,.15,0c.24,0,.82-.52,1.71-1.55a33,33,0,0,1,3.49-3.3A28.31,28.31,0,0,1,24,107.65a14.5,14.5,0,0,1,6.78-1.55A15.73,15.73,0,0,1,40,108.75a19.6,19.6,0,0,1,6.06,6.77,32.57,32.57,0,0,1,3.3,9.12,48,48,0,0,1,1,9.79,44,44,0,0,1-1.52,11.7,29.17,29.17,0,0,1-4.64,9.74,22.36,22.36,0,0,1-8,6.64A25.36,25.36,0,0,1,24.71,165a41.94,41.94,0,0,1-5.37-.31c-1.63-.2-3.23-.43-4.82-.67s-3.25-.48-5-.68A50.79,50.79,0,0,0,3.61,163q.2-7.75.31-15.45T4,132.12Zm35.8,37.49a28.8,28.8,0,0,0-2.44-7.45,15.23,15.23,0,0,0-4.4-5.42,10.51,10.51,0,0,0-6.53-2.1,11.31,11.31,0,0,0-9.95,5.12Q13,123.9,13,132.76v9.49a62.88,62.88,0,0,0,.37,7A16.18,16.18,0,0,0,15,155.06,9.74,9.74,0,0,0,18.75,159a13,13,0,0,0,6.72,1.48,12.17,12.17,0,0,0,7.63-2.27,15.37,15.37,0,0,0,4.65-5.8,27.61,27.61,0,0,0,2.26-7.7,56.35,56.35,0,0,0,.6-8,43,43,0,0,0-.79-8.08Z" transform="translate(0 0)" fill="#231f20"/><path d="M65.41,100.71q0-4.17-.31-8.53a15.67,15.67,0,0,0-2.37-7.55h16.4a15.64,15.64,0,0,0-2.37,7.54c-.21,2.9-.32,5.74-.31,8.52V119.8A11.13,11.13,0,0,0,81,117.71a44.92,44.92,0,0,0,4.87-4.16c1.67-1.64,3.31-3.41,4.94-5.33l4.75-5.58q5-5.88,7.92-9.68t2.92-6V85.61a3.38,3.38,0,0,0-.12-1h15.11q-4.26,3.81-8,7a87.89,87.89,0,0,0-7.73,7.59L86.8,119.8,107,148.92q2.44,3.57,5.36,7.19t5.73,6.83H105.33a3.7,3.7,0,0,1-2.68-.93,13.14,13.14,0,0,1-2-2.4L78.77,126.2a13.1,13.1,0,0,0-.92-1.29c-.37-.45-.67-.68-.91-.68a.4.4,0,0,0-.43.37h0a4.52,4.52,0,0,0-.06.74v21.5q0,4.17.31,8.54a15.75,15.75,0,0,0,2.37,7.56H62.73a15.61,15.61,0,0,0,2.37-7.56c.21-2.9.32-5.74.31-8.52Z" transform="translate(0 0)" fill="#231f20"/><path d="M155.13,163.75a38.39,38.39,0,0,1-1-5.53c-.13-1.39-.43-2.08-.91-2.08a.71.71,0,0,0-.49.12l-.24.24c-.82,1.15-1.62,2.24-2.39,3.26a13.09,13.09,0,0,1-2.76,2.7,12.23,12.23,0,0,1-3.79,1.84,18.61,18.61,0,0,1-5.4.68,17,17,0,0,1-10.77-3.44Q123,158.09,123,151.33a10.91,10.91,0,0,1,2.25-7,23.14,23.14,0,0,1,5.62-5.1,46.7,46.7,0,0,1,7.21-3.87c2.57-1.11,4.87-2.15,6.91-3.14,1.71-.83,3.13-1.52,4.27-2.1a8.83,8.83,0,0,0,2.69-2,6,6,0,0,0,1.34-2.84,23.11,23.11,0,0,0,.37-4.7,13.71,13.71,0,0,0-2.07-7.71q-2.07-3.16-7.43-3.16c-2.93,0-5,.62-6.09,1.84a13.41,13.41,0,0,0-2.62,4.06,31.76,31.76,0,0,1-2,4c-.74,1.23-2.07,1.84-4,1.84a4.89,4.89,0,0,1-3.3-1,4.06,4.06,0,0,1-1.21-3.26A7.25,7.25,0,0,1,127,112a15.6,15.6,0,0,1,5.24-3.5,28.36,28.36,0,0,1,7-1.9,53.55,53.55,0,0,1,7.38-.55,41.64,41.64,0,0,1,6.21.43A16.88,16.88,0,0,1,158,108a8.79,8.79,0,0,1,3.46,3.08,8.9,8.9,0,0,1,1.28,4.93v27.09q0,5.53.3,10.77a16.47,16.47,0,0,0,3,9.14Zm-19.33-7.87a10.44,10.44,0,0,0,6.79,2.15,9.5,9.5,0,0,0,4.78-1.16,11.1,11.1,0,0,0,3.48-3.06,13.07,13.07,0,0,0,2.09-4.35,19.19,19.19,0,0,0,.67-5v-12.4L147,135.37c-2.29,1.14-4.29,2.19-6,3.12a26.07,26.07,0,0,0-4.34,2.94,9.86,9.86,0,0,0-2.63,3.44,10.53,10.53,0,0,0-.86,4.46C133.17,152.27,134,154.46,135.8,155.88Z" transform="translate(0 0)" fill="#231f20"/><path d="M185.93,123.46a20.55,20.55,0,0,0,4.69,4.38,55.53,55.53,0,0,0,6.1,3.57,38.81,38.81,0,0,1,6.09,3.81,21,21,0,0,1,4.69,5,12.57,12.57,0,0,1,1.89,7.14,15,15,0,0,1-1.89,7.7,17.4,17.4,0,0,1-5,5.49,22.76,22.76,0,0,1-7,3.32,27.87,27.87,0,0,1-7.75,1.11,34,34,0,0,1-6.9-.68,41.83,41.83,0,0,1-6.66-2,4.67,4.67,0,0,1-1.52-.86,2.44,2.44,0,0,1-.55-1.85,41,41,0,0,1,.24-4.43c.16-1.48.29-3,.37-4.56,1,1.55,1.91,2.93,2.81,4.16a14.79,14.79,0,0,0,3,3.12,12.73,12.73,0,0,0,3.85,2,17.25,17.25,0,0,0,5.2.68c3.67,0,6.5-.85,8.5-2.58s3-4.35,3-7.88a10.62,10.62,0,0,0-1.76-6.21,18.14,18.14,0,0,0-4.45-4.42,50,50,0,0,0-5.85-3.58,35.16,35.16,0,0,1-5.85-3.81,18.5,18.5,0,0,1-4.44-5.17,14.68,14.68,0,0,1-1.77-7.57c0-4.67,1.64-8,4.93-10.08s7.82-3.08,13.58-3.08a35.59,35.59,0,0,1,5.55.43c1.83.29,3.67.64,5.54,1a6.1,6.1,0,0,0,.91.31.78.78,0,0,1,.67.8c0,1.15,0,2.51-.06,4.07s-.1,3-.18,4.3q-1.83-2.22-3.23-3.64a12.67,12.67,0,0,0-2.87-2.22,10,10,0,0,0-3-1.11,19.52,19.52,0,0,0-3.66-.31,11.55,11.55,0,0,0-6.34,1.79,6.27,6.27,0,0,0-2.81,5.72A9.89,9.89,0,0,0,185.93,123.46Z" transform="translate(0 0)" fill="#231f20"/><path d="M262.35,149.65c0,2.3.08,4.65.24,7.08a14.68,14.68,0,0,0,1.71,6.21H253.36V129.16a58.34,58.34,0,0,0-.31-5.91,15.42,15.42,0,0,0-1.48-5.31,10.09,10.09,0,0,0-3.31-3.82,10.24,10.24,0,0,0-5.84-1.48,9.61,9.61,0,0,0-9.4,5.43,16.93,16.93,0,0,0-1.73,5.55,45.32,45.32,0,0,0-.42,6.16v19.84q0,3.45.25,7.09a12.26,12.26,0,0,0,2,6.23H219.68a12.68,12.68,0,0,0,1.95-6.21q.24-3.63.24-7.07V91.13a65.35,65.35,0,0,0-.36-7.13,7.16,7.16,0,0,0-2.81-5.17l12.17-2V113c0,.41.15.61.36.61s.71-.39,1.41-1.17a18.86,18.86,0,0,1,3-2.57,22.12,22.12,0,0,1,4.85-2.58,18.24,18.24,0,0,1,6.82-1.17q7,0,11,3.69t4,12.3Z" transform="translate(0 0)" fill="#231f20"/><polygon points="250.67 0 354.12 13.49 329.58 99.36 250.67 0" fill="#d83868"/><path d="M357.79,13.9l76.88,102.22-88.73,42.53-11-45s-2.86-16.35,1.63-29Z" transform="translate(0 0)" fill="#d83868"/><polygon points="437.53 115.31 408.9 75.23 457.15 67.06 437.53 115.31" fill="#b11116"/><polygon points="460.83 67.06 478.82 86.28 452.66 86.28 460.83 67.06" fill="#b11116"/><polygon points="361.48 155.79 434.67 119.4 432.21 127.98 361.48 155.79" fill="#d93b2b"/><polygon points="329.58 108.36 298.92 211.4 345.53 174.59 329.58 108.36" fill="#9e0b0f"/><polygon points="290.74 55.2 260.89 17.17 249.44 17.58 290.74 55.2" fill="#b11116"/><path d="M334.25,108c.26,3.44.65,5.68.65,5.68l11,45,88.73-42.53-.82-1.08Z" transform="translate(0 0)" fill="#c4161c"/></g></svg>