<svg id="Layer_1" data-name="Layer 1" xmlns="http://www.w3.org/2000/svg" viewBox="0 0 566.91 137.35"><title>paypal</title><g id="Layer_1-2" data-name="Layer 1-2"><path d="M49.47,32.33H88.21c20.8,0,28.63,10.53,27.42,26C113.64,83.89,98.2,98,77.71,98H67.37c-2.81,0-4.7,1.85-5.46,6.9l-4.44,29.3c-.29,1.9-1.29,3-2.79,3.15H30.39c-2.29,0-3.1-1.75-2.5-5.53L42.72,37.88C43.32,34.12,45.37,32.33,49.47,32.33Z" transform="translate(0 0)" fill="#009ee3" fill-rule="evenodd"/><path d="M217.66,30.59c13.07,0,25.13,7.09,23.48,24.76-2,21-13.25,32.63-31,32.68h-15.5c-2.23,0-3.3,1.81-3.89,5.55l-3,19.07c-.45,2.88-1.93,4.3-4.12,4.3H169.21c-2.31,0-3.11-1.47-2.6-4.76l11.93-76.44c.59-3.76,2-5.16,4.58-5.16ZM194.15,71.51h11.76c7.34-.27,12.23-5.36,12.72-14.55.3-5.67-3.53-9.72-9.62-9.69H197.94l-3.79,24.19Zm86.21,39.58c1.32-1.19,2.67-1.82,2.47-.34l-.47,3.54c-.24,1.85.49,2.83,2.22,2.83h12.81c2.16,0,3.21-.87,3.75-4.21L309,63.33c.39-2.49-.21-3.71-2.1-3.71H292.8c-1.27,0-1.88.71-2.22,2.65l-.52,3c-.27,1.6-1,1.87-1.68.27-2.39-5.66-8.49-8.2-17-8C251.6,58,238.27,73,236.85,92.22c-1.11,14.89,9.56,26.57,23.62,26.57C270.66,118.79,275.23,115.79,280.36,111.09Zm-10.72-7.62c-8.52,0-14.45-6.78-13.21-15.11s9.19-15.11,17.7-15.11S288.58,80,287.34,88.36,278.15,103.47,269.64,103.47Zm64.5-44H321.19c-2.69,0-3.78,2-2.92,4.46l16.14,47.26L318.5,133.66c-1.32,1.88-.3,3.6,1.57,3.6h14.62a4.47,4.47,0,0,0,4.34-2.14l49.63-71.2c1.53-2.19.81-4.49-1.69-4.49H373.15c-2.37,0-3.32.94-4.68,2.91l-20.71,30-9.21-30.09c-.55-1.83-1.92-2.79-4.41-2.79Z" transform="translate(0 0)" fill="#113984" fill-rule="evenodd"/><path d="M440.32,30.59c13.08,0,25.14,7.09,23.49,24.76-2,21-13.25,32.63-31,32.68H417.3c-2.23,0-3.31,1.81-3.89,5.55l-3,19.07c-.45,2.88-1.93,4.3-4.12,4.3H391.87c-2.3,0-3.1-1.47-2.59-4.76l11.93-76.44c.59-3.76,2-5.16,4.57-5.16Zm-23.5,40.92h11.75c7.35-.27,12.24-5.36,12.73-14.55.3-5.67-3.53-9.72-9.62-9.69H420.61l-3.79,24.19ZM503,111.09c1.32-1.19,2.66-1.82,2.47-.34l-.47,3.54c-.24,1.85.49,2.83,2.21,2.83H520c2.16,0,3.21-.87,3.74-4.21l7.9-49.58c.4-2.49-.2-3.71-2.1-3.71H515.51c-1.27,0-1.89.71-2.22,2.65l-.52,3c-.27,1.6-1,1.87-1.68.27-2.39-5.66-8.49-8.2-17-8C474.27,58,460.94,73,459.51,92.22c-1.1,14.89,9.57,26.57,23.62,26.57,10.2,0,14.76-3,19.9-7.7Zm-10.73-7.62c-8.51,0-14.44-6.78-13.2-15.11s9.19-15.11,17.7-15.11S511.24,80,510,88.36s-9.19,15.11-17.7,15.11Zm59.13,13.74H536.64a1.75,1.75,0,0,1-1.84-1.66,1.94,1.94,0,0,1,0-.34l13-82.36a2.55,2.55,0,0,1,2.46-2.05h14.79a1.75,1.75,0,0,1,1.84,1.67,1.59,1.59,0,0,1,0,.38l-13,82.36a2.53,2.53,0,0,1-2.46,2Z" transform="translate(0 0)" fill="#009ee3" fill-rule="evenodd"/><path d="M25.24,0H64C75,0,87.91.35,96.57,8c5.79,5.1,8.83,13.24,8.13,22-2.38,29.62-20.09,46.2-43.85,46.2H41.72c-3.25,0-5.41,2.16-6.33,8l-5.34,34c-.34,2.2-1.3,3.5-3,3.65H3.12c-2.65,0-3.59-2-2.9-6.42l17.2-109C18.11,2.08,20.5,0,25.24,0Z" transform="translate(0 0)" fill="#113984" fill-rule="evenodd"/><path d="M36,80.75l6.77-42.87c.6-3.76,2.65-5.55,6.75-5.55H88.21c6.41,0,11.6,1,15.66,2.84-3.9,26.36-20.94,41-43.27,41H41.48C39,76.17,37.08,77.46,36,80.75Z" transform="translate(0 0)" fill="#172c70" fill-rule="evenodd"/></g></svg>