<svg id="Layer_1" data-name="Layer 1" xmlns="http://www.w3.org/2000/svg" viewBox="0 0 303.79 191.25"><title>rocket</title><g id="Layer_1-2" data-name="Layer 1-2"><polygon points="225.76 24.81 180.87 69.69 184.02 94.89 192.29 77.57 217.88 110.25 253.71 0 134.4 49.61 166.69 66.54 225.76 24.81" fill="#fff" fill-rule="evenodd"/><path d="M186.78,103.56H139.53c-36,5.51-39.77,57.88-.39,65h47.64V121.27c15.89.53,19.17,20.35,7.49,27.57,2.36,2.75,11.81,13,11.81,13C230.88,140.44,216.71,105.26,186.78,103.56Zm-17.31,47.25H143.09c-16.34,1-21.66-26-1.58-29.54h28Z" transform="translate(-0.01 0)" fill="#fff"/><path d="M285.62,127.18H268.29l-7.48,17.33h22.05c4.43-.2,4.63,6.3,0,6.69H244.67V121.27h58.66V103.56h-8.66c-2.56-36.62-46.36-37.71-57.88-17.72,2.26,1.87,13,11.42,13,11.42,6.6-10.34,24.91-9.85,27.57,6.3h-50v65h56.31c12.79-.19,18.7-9.64,20.08-17.71C304.52,137.81,296.64,129.15,285.62,127.18Z" transform="translate(-0.01 0)" fill="#fff" fill-rule="evenodd"/><path d="M117.09,103.56H94.25c-7.28,8.86-19.88,44.69,5.12,71.66,0,0,10.83-9.25,13-11C104.68,156.71,91.89,126.2,117.09,103.56Z" transform="translate(-0.01 0)" fill="#fff" fill-rule="evenodd"/><path d="M59,175.84a14.32,14.32,0,1,1-14.33-14.31h0A14.33,14.33,0,0,1,59,175.84Z" transform="translate(-0.01 0)" fill="#fff" fill-rule="evenodd"/><path d="M28.49,103.56c-36,5.51-39.76,57.88-.39,65h.26a17.85,17.85,0,0,1,32.56,0H75.74v-65Zm29.93,47.25H32c-16.34,1-21.66-26-1.58-29.54h28Z" transform="translate(-0.01 0)" fill="#fff" fill-rule="evenodd"/><path d="M45.43,88.2c5.8-1,8.66-12.9-.79-15.55H29.28V95.29h6.3V88.2l7.09,7.09h9.85Zm-.75-8a1.49,1.49,0,0,1-1.49,1.49H35.66V78.54h7.53A1.49,1.49,0,0,1,44.68,80Z" transform="translate(-0.01 0)" fill="#fff" fill-rule="evenodd"/><path d="M63.48,72.29A11.48,11.48,0,1,0,75,83.76,11.48,11.48,0,0,0,63.48,72.29Zm0,16.51a5,5,0,1,1,.05,0Z" transform="translate(-0.01 0)" fill="#fff" fill-rule="evenodd"/><path d="M128.57,78.81h10.31V72.16h-8.72c-6.86,0-12.48,5.18-12.48,11.5s5.62,11.51,12.48,11.51h8.72V88.52H128.57a4.7,4.7,0,0,1-3.73-1.84h14v-6h-14A4.72,4.72,0,0,1,128.57,78.81Z" transform="translate(-0.01 0)" fill="#fff" fill-rule="evenodd"/><path d="M87.58,88.52a4.74,4.74,0,0,1-4.72-4.72v-.27a4.74,4.74,0,0,1,4.72-4.72h9.8V72.16H88.59c-6.86,0-12.47,5.18-12.47,11.5s5.61,11.51,12.47,11.51h8.79V88.52Z" transform="translate(-0.01 0)" fill="#fff" fill-rule="evenodd"/><polygon points="162.82 72.59 140.6 72.59 140.6 78.55 148.73 78.55 148.73 94.82 154.68 94.82 154.68 78.55 162.82 78.55 162.82 72.59" fill="#fff" fill-rule="evenodd"/><polygon points="109.93 83.62 120.87 72.59 112.01 72.59 105.86 78.8 105.86 72.59 99.91 72.59 99.91 94.82 105.86 94.82 105.86 88.45 112.18 94.82 121.03 94.82 109.93 83.62" fill="#fff"/><path d="M199.42,179.54a4.27,4.27,0,0,0-2.59,1.86,5,5,0,0,0-1.08,3,4.33,4.33,0,0,0,.38,1.77c.32.73.76,1.09,1.3,1.09a2,2,0,0,0,1.08-.45l.62,1.65a3.16,3.16,0,0,1-1.63.51,3.3,3.3,0,0,1-2.07-.8,4.28,4.28,0,0,1-1.09-1.77,5.44,5.44,0,0,1-.26-1.92v-.61q0-2,2.15-4.55a17.7,17.7,0,0,1,1.53-1.47H200v1.63Z" transform="translate(-0.01 0)" fill="#fff"/><path d="M209.37,179.49v9.35H207.5v-1.21a2.63,2.63,0,0,0-.95-1.6,9.15,9.15,0,0,0-1.5-1.28,3.32,3.32,0,0,0-1.9-.6,1.62,1.62,0,0,0-1.53.9.54.54,0,0,0-.06.25.92.92,0,0,0,.37.68,1.19,1.19,0,0,0,.74.3,6.06,6.06,0,0,0,1.43-.44l.55,1.7a4.81,4.81,0,0,1-2.09.64,3,3,0,0,1-1.71-.52,3.11,3.11,0,0,1-1.13-1.38,2.36,2.36,0,0,1-.16-.91,2.68,2.68,0,0,1,1.32-2.42,3.48,3.48,0,0,1,2-.6H203a2,2,0,0,0-.52-1.11,1.36,1.36,0,0,0-1-.6h-2.07v-1.15h-.84v-1.64h12v1.64Zm-1.87,0h-4.4a3.86,3.86,0,0,1,2,3.16,6.86,6.86,0,0,1,2.45,1.85Z" transform="translate(-0.01 0)" fill="#fff"/><path d="M213,179.49v9.35h-1.87v-9.35h-1.38v-1.64h4.5v1.64Z" transform="translate(-0.01 0)" fill="#fff"/><path d="M222,179.49h-8.42v-1.64h11.66v1.64H224v9.35h-1.65c-.16-.48-1-1.22-2.43-2.23a11.25,11.25,0,0,0-2.46-1.21,8.45,8.45,0,0,0-2.67-.62l-.5-1.86a20.7,20.7,0,0,1,3.62-1.8C218.71,180.75,220.1,180.21,222,179.49Zm.11,2c-.35.12-.72.25-1.12.41l-3.2,1.4-.36.15a15.72,15.72,0,0,1,4.24,2.3c.17.13.32.23.44.33Z" transform="translate(-0.01 0)" fill="#fff"/><path d="M227.62,179.49v9.35h-1.87v-9.35h-1.38v-1.64h4.49v1.64Z" transform="translate(-0.01 0)" fill="#fff"/><path d="M228.21,179.49v-1.64h5.52a.33.33,0,0,0,0-.14,1.62,1.62,0,0,0-1.21-1.69,1.09,1.09,0,0,0-.36,0,3.58,3.58,0,0,0-.73.11l-.72.18a2.24,2.24,0,0,0-.83.3,6.64,6.64,0,0,1-1,.57l-.6-1.39a10.39,10.39,0,0,1,2.82-1.27,4.68,4.68,0,0,1,1.39-.21,3.23,3.23,0,0,1,1.57.5,3.42,3.42,0,0,1,1.55,3.08h1.08v1.64Zm6.5,10.92a25,25,0,0,0-2.43-1.92,9.36,9.36,0,0,0-2-.94,6.83,6.83,0,0,0-1.33-.41V185h1.45a5.56,5.56,0,0,0,2.06-.33c1-.42,1.51-.92,1.51-1.49a1.26,1.26,0,0,0-.57-1.06q-.56-.33-1.14-.63a.68.68,0,0,0-.31-.08,1.87,1.87,0,0,0-.74.18c-.33.15-.48.32-.46.51.07.49.58.69,1.53.62l-1,1.55a2.06,2.06,0,0,1-1.25-.39,2.25,2.25,0,0,1-1.15-1.9,1.94,1.94,0,0,1,1.17-1.75,4.4,4.4,0,0,1,2.19-.52,2.21,2.21,0,0,1,.92.17q.39.18.78.39a3.12,3.12,0,0,1,1.91,2.94,2.72,2.72,0,0,1-1.17,2.29,5.93,5.93,0,0,1-2.56,1c.33.16.8.42,1.43.79a27.84,27.84,0,0,1,2.56,2.16Z" transform="translate(-0.01 0)" fill="#fff"/><path d="M247.84,179.49v9.35H246v-3.71a1.68,1.68,0,0,0-.41-1,1.18,1.18,0,0,0-.9-.51,1.09,1.09,0,0,0-.83.54,2.1,2.1,0,0,0-.4,1.23h-2a2.27,2.27,0,0,0-.4-1.34,1.13,1.13,0,0,0-.92-.56,1.3,1.3,0,0,0-.84.31,1.06,1.06,0,0,0-.44.72l-.06.49v.19q0,1.44,1.77,1.44a7.47,7.47,0,0,0,1-.12l-.66,1.89c-.38.05-.61.07-.69.07a3.66,3.66,0,0,1-2.43-1,2.68,2.68,0,0,1-.71-1.13,4,4,0,0,1-.26-1.32,3.23,3.23,0,0,1,3-3.41h.34a2.81,2.81,0,0,1,2.37,1.35,2.87,2.87,0,0,1,2.23-1.35,1.82,1.82,0,0,1,1.27.6v-2.76h-10.1v-1.64h13v1.64Z" transform="translate(-0.01 0)" fill="#fff"/><path d="M261.87,179.49h-8.43v-1.64h11.67v1.64h-1.3v9.35h-1.65c-.16-.48-1-1.22-2.43-2.23a11.25,11.25,0,0,0-2.46-1.21,8.45,8.45,0,0,0-2.67-.62l-.5-1.86a20.7,20.7,0,0,1,3.62-1.8C258.55,180.75,259.94,180.21,261.87,179.49Zm.11,2c-.35.12-.72.25-1.12.41l-3.2,1.4-.36.15a15.72,15.72,0,0,1,4.24,2.3l.44.33Z" transform="translate(-0.01 0)" fill="#fff"/><path d="M268.24,179.49a3.82,3.82,0,0,0-.88,2,19.54,19.54,0,0,0,.9,3,6.7,6.7,0,0,1,.48,2.17,2.32,2.32,0,0,1-1.83,2.27,8.49,8.49,0,0,1-2,.36l.26-1.62q1.65-.36,1.65-1.17a6.59,6.59,0,0,0-.69-2.34,6.7,6.7,0,0,1-.69-2.32,5,5,0,0,1,.8-2.33H264.3v-1.64h5.21v1.64Z" transform="translate(-0.01 0)" fill="#fff"/><path d="M272.24,179.49v9.35h-1.87v-9.35H269v-1.64h4.49v1.64Z" transform="translate(-0.01 0)" fill="#fff"/><path d="M276.56,183.92a2.81,2.81,0,0,1-2.11-.83,3,3,0,0,1-.79-2.13,2.73,2.73,0,0,1,.81-2,2.77,2.77,0,0,1,2-.81,2.48,2.48,0,0,1,2.39,1.65,3.27,3.27,0,0,1,.31,1.38,2.87,2.87,0,0,1-.68,2A2.53,2.53,0,0,1,276.56,183.92Zm2.05,6a31.35,31.35,0,0,0-4.83-3.59v-2.59a30.42,30.42,0,0,1,6.4,5.58v1.93ZM277,180.11a.75.75,0,0,0-.56-.15c-.71.11-1.06.46-1.06,1a1.2,1.2,0,0,0,.35.82,1.09,1.09,0,0,0,.79.38h.26a1,1,0,0,0,.8-1A1.27,1.27,0,0,0,277,180.11Z" transform="translate(-0.01 0)" fill="#fff"/><path d="M292,176.75a11,11,0,0,0-5.35-2.05,4.21,4.21,0,0,0-3.61,1.55,2.84,2.84,0,0,0-.43,1.6h1.31v1.64h-1.31v9.35H280.7v-9.35h-1.24v-1.64h1.24a4.54,4.54,0,0,1,1.31-3.23,5.78,5.78,0,0,1,3.4-1.53l.84-.1h.4a8.49,8.49,0,0,1,3.4.74c.6.28,1.61.85,3,1.7Z" transform="translate(-0.01 0)" fill="#fff"/><path d="M290.41,179.49v.06a5.69,5.69,0,0,1,2.44.74,3,3,0,0,1,1.79,2.65,2.53,2.53,0,0,1-.6,1.68,2.79,2.79,0,0,1-1.56.94,3.83,3.83,0,0,1-1.65.07v-1.77h.6c.93,0,1.4-.34,1.4-1s-.81-1.31-2.42-1.52v7.47h-1.66a5.3,5.3,0,0,0-.79-1.2c-.09-.11-.33-.42-.72-.94a3.94,3.94,0,0,0-.65-.64,3.34,3.34,0,0,1-.66-.64,1.07,1.07,0,0,0-.44-.25,6.5,6.5,0,0,0-2-.43l-.49-1.86c.41-.3,1.34-.85,2.78-1.67l1.32-.77,1.4-.82v-.13h-5.9v-1.64h12.84v1.64Zm-1.88,2.16c-.3.23-.77.54-1.39.93a1.81,1.81,0,0,0-.55.4c-.2.2-.4.38-.58.55.2.18.51.43.95.76l1.57,1.73Z" transform="translate(-0.01 0)" fill="#fff"/><path d="M298.26,183.92a2.81,2.81,0,0,1-2.11-.83,3,3,0,0,1-.79-2.13,2.73,2.73,0,0,1,.81-2,2.77,2.77,0,0,1,2-.81,2.46,2.46,0,0,1,2.38,1.65,3.14,3.14,0,0,1,.32,1.38,2.87,2.87,0,0,1-.68,2A2.53,2.53,0,0,1,298.26,183.92Zm2,6a30.71,30.71,0,0,0-4.83-3.59v-2.59c3.25,2.34,5.39,4.2,6.39,5.58v1.93Zm-1.65-9.83a.75.75,0,0,0-.56-.15c-.71.11-1.06.46-1.06,1a1.2,1.2,0,0,0,.35.82,1.09,1.09,0,0,0,.79.38h.26a1,1,0,0,0,.8-1,1.31,1.31,0,0,0-.54-1Z" transform="translate(-0.01 0)" fill="#fff"/><polygon points="91.5 189.64 94.99 190.82 96.38 189.64 92.9 188.42 91.5 189.64" fill="#fff"/><path d="M92.67,180v-2.11H65.31V180h4.6v4.71h4s1.12-.36,1.39-.93v1.86a1.49,1.49,0,0,1-1.39,1.55H68.05c-.35,0-.7-.15-.7-1.55v-4.39h-2v5.63c0,.47.29,2.11,1.76,2.11H75a2.51,2.51,0,0,0,2.17-2.34v-5.4h-1.9c-.19.83-.08,1.39-.93,1.6H72V180h6.74v9h2.32v-9h1.62v9h7.67a2.4,2.4,0,0,0,2.32-2.42v-5.32H90.81c0,.52-.07,1.29-.92,1.29H84.77V180Zm-3,4.4c.35.1.82-.46,1.16-.93v2.17c0,.83-.65,1.55-1.16,1.55h-4.9V184.4Z" transform="translate(-0.01 0)" fill="#fff"/><rect x="95.22" y="182.51" width="4.65" height="2.48" fill="#fff"/><path d="M102.44,177.86V180h7.65v1.25h-7.65v5c.16,1.63,1,2.73,2.59,2.73h7v-9h1.63v9h2.09v-11.1Zm7.65,9.61h-4.64c-.7-.1-1.16-.93-1.16-1.86v-2.48h5.8Z" transform="translate(-0.01 0)" fill="#fff"/><path d="M125.7,180h9.48v1.25h-2.79a.93.93,0,1,1-1.86,0H125.7v5.32c0,.52.08,2.21,1.5,2.42H131v-1.8h-2.56a1.17,1.17,0,0,1-.93-1.24v-2.79h2.56v1.55h2.32v-1.24c-.15-.57,2.44-.52,2.56,0V189H137v-9h1.39v9h2.09V177.9H125.7Z" transform="translate(-0.01 0)" fill="#fff"/><path d="M122.4,178.48h-4.93v2.91a2.4,2.4,0,0,0,2.38,2.17h4V180A1.73,1.73,0,0,0,122.4,178.48Zm-1.5,3.11c-.89,0-1.61-.33-1.61-.73s.72-.73,1.61-.73,1.61.33,1.61.73S121.79,181.59,120.9,181.59Z" transform="translate(-0.01 0)" fill="#fff"/><polygon points="117.79 184.66 117.79 186.49 123.75 188.96 123.75 187.02 117.79 184.66" fill="#fff"/><path d="M172.45,178.48h-4.94v2.91a2.41,2.41,0,0,0,2.38,2.17h4V180A1.72,1.72,0,0,0,172.45,178.48Zm-1.5,3.11c-.9,0-1.62-.33-1.62-.73s.72-.73,1.62-.73,1.61.33,1.61.73-.72.73-1.56.73Z" transform="translate(-0.01 0)" fill="#fff"/><polygon points="167.83 184.66 167.83 186.49 173.8 188.96 173.8 187.02 167.83 184.66" fill="#fff"/><path d="M185.12,181.22V180H189v-2.11H175.61V180h7.65v1.25h-7.65v5c.17,1.63,1,2.73,2.59,2.73h6.92v-5.52H187c.31,0,.39-.15.46.31v.93c-.11.47-.15.78-.46.93h-.69v1.86h1.39a1.75,1.75,0,0,0,1.39-1.24v-5Zm-1.86,6.25h-4.64c-.7-.1-1.16-.93-1.16-1.86v-2.48h5.77v.31h0Z" transform="translate(-0.01 0)" fill="#fff"/><path d="M146.78,177.86V180h7.65v1.25h-7.65v5c.16,1.63,1,2.73,2.59,2.73h6.92v-9h2.42l-.88,1.76V183h1.62c.87.1,1.16.67,1.16,2.17,0,1-.23,1.78-1,1.86h-1.52v1.86h1.63c.46,0,2.59.21,2.78-1.86.23-4.18.43-5.27-2.55-5.58l.43-1.45h3.28v9h2.09V177.9Zm7.65,9.61h-4.65c-.69-.1-1.16-.93-1.16-1.86v-2.48h5.81Z" transform="translate(-0.01 0)" fill="#fff"/></g></svg>