<svg xmlns="http://www.w3.org/2000/svg" xmlns:xlink="http://www.w3.org/1999/xlink" viewBox="0 0 297.84 182.23"><defs><style>.cls-1{fill:none;}.cls-2{fill:url(#linear-gradient);}.cls-3{clip-path:url(#clip-path);}.cls-4{stroke:#c5c5c6;stroke-miterlimit:10;stroke-width:0.39px;fill:url(#linear-gradient-2);}.cls-5{fill:#e8242a;}.cls-5,.cls-6,.cls-7{fill-rule:evenodd;}.cls-6{fill:#214596;}.cls-7{fill:#0d984a;}</style><linearGradient id="linear-gradient" x1="5.07" y1="96.07" x2="290.05" y2="96.07" gradientUnits="userSpaceOnUse"><stop offset="0" stop-color="#949494"/><stop offset="0.06" stop-color="#a6a6a6"/><stop offset="0.16" stop-color="#d5d5d5"/><stop offset="0.25" stop-color="#fff"/><stop offset="0.37" stop-color="#cacaca"/><stop offset="0.51" stop-color="#8f8f8f"/><stop offset="0.62" stop-color="#6a6a6a"/><stop offset="0.68" stop-color="#5c5c5c"/><stop offset="0.72" stop-color="#636464"/><stop offset="0.78" stop-color="#787878"/><stop offset="0.85" stop-color="#9a9a9a"/><stop offset="0.94" stop-color="#c9c9c9"/><stop offset="1" stop-color="#eff0f0"/></linearGradient><clipPath id="clip-path"><path class="cls-1" d="M297.65,87.34c0,48.13-66.49,87.15-148.51,87.15S.63,135.47.63,87.34,67.12.19,149.14.19,297.65,39.21,297.65,87.34Z"/></clipPath><linearGradient id="linear-gradient-2" x1="149.14" y1="-8.92" x2="149.14" y2="182.44" gradientUnits="userSpaceOnUse"><stop offset="0" stop-color="#c2c4c6"/><stop offset="0.24" stop-color="#e1e2e3"/><stop offset="0.45" stop-color="#fff"/><stop offset="0.73" stop-color="#cacccd"/><stop offset="1" stop-color="#9c9fa1"/></linearGradient></defs><title>DBBL</title><g id="Layer_2" data-name="Layer 2"><g id="Layer_1-2" data-name="Layer 1"><path class="cls-2" d="M297.65,96.07c0,47.59-66.63,86.16-148.83,86.16S0,143.66,0,96.07,66.64,9.9,148.82,9.9,297.65,48.49,297.65,96.07Z"/><g class="cls-3"><path class="cls-4" d="M297.65,87.34c0,48.13-66.49,87.15-148.51,87.15S.63,135.47.63,87.34,67.12.19,149.14.19,297.65,39.21,297.65,87.34Z"/><path class="cls-5" d="M196,171.74c-4.12.67-7.93,1.45-11.76,1.85-8.51.9-17.05,1.64-25.57,2.4-1.91.17-3.83.17-5.75.17a2,2,0,0,1-1.22-.51c-18.36-17.24-35.81-35.26-50.09-55.87A107.86,107.86,0,0,1,90.26,99.07c-4.89-12-3-23.09,4.37-33.59,5.72-8.12,13.12-14.61,21.16-20.5C128,36.06,141.3,28.92,155,22.49A410.75,410.75,0,0,1,202.29,3.9a6.18,6.18,0,0,1,3.08-.17c3.48.76,6.91,1.69,10.37,2.81-2.54.92-5.1,1.82-7.63,2.75-18.25,6.77-35.86,14.77-52.22,25.14-8.79,5.57-17,11.8-23.91,19.51-5.2,5.82-9.35,12.2-11.08,19.82A28.27,28.27,0,0,0,122.67,92c3.57,8,8.56,15.18,14,22a305,305,0,0,0,34.09,35.63c8,7.25,16.28,14.22,24.44,21.31C195.43,171.19,195.59,171.35,196,171.74Z"/><path class="cls-6" d="M137.65,176.13c-3.21-.15-6.05-.18-8.88-.42-5.81-.48-11.65-.85-17.41-1.68-7.61-1.08-15.17-2.56-22.74-3.89a1.81,1.81,0,0,1-.92-.58C74.35,154,62,137.81,53,119.47a77.59,77.59,0,0,1-7.28-21.89c-1.37-8.5.58-16.26,5-23.56C55.49,66.23,62,59.9,69.09,54.16,79.93,45.44,91.9,38.37,104.34,32,129,19.34,154.94,9.57,181.41,1c3.82-1.24,7.26-.49,10.87.11,1.63.28,3.25.6,5.22,1-2.85,1-5.4,1.87-7.92,2.79-21,7.63-41.5,16.4-60.92,27.35-11.21,6.31-21.92,13.3-31.36,21.94A71.71,71.71,0,0,0,84.38,69.35c-5.93,9.61-7,19.61-3,30.16,3.69,9.74,9,18.63,14.88,27.23,10,14.58,21.57,28.07,33.64,41.14C132.36,170.55,134.87,173.17,137.65,176.13Z"/><path class="cls-7" d="M245.13,156.33c-3.72,1.53-7.18,3-10.68,4.39a214.11,214.11,0,0,1-25.2,7.93,2.09,2.09,0,0,1-2-.38c-17.74-13.29-34.82-27.29-50.34-43-8.36-8.46-16.2-17.31-22.2-27.53A40.93,40.93,0,0,1,129.52,85c-1.49-7.46,0-14.47,3.65-21.13C136.93,57,142.24,51.21,148.24,46c10.68-9.2,22.78-16.35,35.43-22.73a324,324,0,0,1,35.23-15,4.14,4.14,0,0,1,2.94-.07c3.27,1.15,6.55,2.23,10,3.41-3.73,1.41-7.23,2.67-10.67,4.07-13.8,5.58-27,12.19-38.81,21.12-7.16,5.4-13.52,11.53-18,19.24a34.18,34.18,0,0,0-4.83,19.79c.32,5.31,2.52,10,5.39,14.38a108.31,108.31,0,0,0,16.91,19.66C194.31,121.67,208,132,222.34,141.6c7.2,4.84,14.59,9.4,21.88,14.09C244.43,155.82,244.64,156,245.13,156.33Z"/></g></g></g></svg>